<mxfile host="app.diagrams.net" modified="2023-10-23T16:33:26.849Z" agent="Mozilla/5.0 (Windows NT 10.0; Win64; x64) AppleWebKit/537.36 (KHTML, like Gecko) Chrome/116.0.0.0 Safari/537.36 OPR/102.0.0.0" etag="z4GUPvHyUqwGMeCEdjSo" version="22.0.6" type="device">
  <diagram name="Strona-1" id="onoW3cXTG_uG_Y7Fapc4">
    <mxGraphModel dx="601" dy="916" grid="1" gridSize="10" guides="1" tooltips="1" connect="1" arrows="1" fold="1" page="1" pageScale="1" pageWidth="1100" pageHeight="850" math="0" shadow="0">
      <root>
        <mxCell id="0" />
        <mxCell id="1" parent="0" />
        <mxCell id="MbIWgW55jRPoxcWCfszn-1" value="Użytkownik" style="ellipse;whiteSpace=wrap;html=1;" vertex="1" parent="1">
          <mxGeometry x="40" y="230" width="120" height="80" as="geometry" />
        </mxCell>
        <mxCell id="MbIWgW55jRPoxcWCfszn-5" value="" style="endArrow=classic;html=1;rounded=0;exitX=1;exitY=0.5;exitDx=0;exitDy=0;" edge="1" parent="1" source="MbIWgW55jRPoxcWCfszn-1">
          <mxGeometry width="50" height="50" relative="1" as="geometry">
            <mxPoint x="320" y="590" as="sourcePoint" />
            <mxPoint x="340" y="270" as="targetPoint" />
          </mxGeometry>
        </mxCell>
        <mxCell id="MbIWgW55jRPoxcWCfszn-6" value="Prośba o dodanie składnika" style="edgeLabel;html=1;align=center;verticalAlign=middle;resizable=0;points=[];" vertex="1" connectable="0" parent="MbIWgW55jRPoxcWCfszn-5">
          <mxGeometry x="-0.0889" y="-2" relative="1" as="geometry">
            <mxPoint as="offset" />
          </mxGeometry>
        </mxCell>
        <mxCell id="MbIWgW55jRPoxcWCfszn-7" value="Proces dodawania składnika" style="swimlane;whiteSpace=wrap;html=1;" vertex="1" parent="1">
          <mxGeometry x="340" y="210" width="180" height="100" as="geometry" />
        </mxCell>
        <mxCell id="MbIWgW55jRPoxcWCfszn-11" value="Baza składników" style="rounded=0;whiteSpace=wrap;html=1;" vertex="1" parent="1">
          <mxGeometry x="620" y="410" width="170" height="30" as="geometry" />
        </mxCell>
        <mxCell id="MbIWgW55jRPoxcWCfszn-13" value="" style="endArrow=classic;html=1;rounded=0;exitX=0.5;exitY=0;exitDx=0;exitDy=0;" edge="1" parent="1" source="MbIWgW55jRPoxcWCfszn-11">
          <mxGeometry width="50" height="50" relative="1" as="geometry">
            <mxPoint x="320" y="590" as="sourcePoint" />
            <mxPoint x="450" y="310" as="targetPoint" />
          </mxGeometry>
        </mxCell>
        <mxCell id="MbIWgW55jRPoxcWCfszn-14" value="Wirtualna lodówka" style="rounded=0;whiteSpace=wrap;html=1;" vertex="1" parent="1">
          <mxGeometry x="400" y="410" width="160" height="30" as="geometry" />
        </mxCell>
        <mxCell id="MbIWgW55jRPoxcWCfszn-15" value="" style="endArrow=classic;html=1;rounded=0;entryX=0.423;entryY=0.033;entryDx=0;entryDy=0;entryPerimeter=0;" edge="1" parent="1" target="MbIWgW55jRPoxcWCfszn-14">
          <mxGeometry width="50" height="50" relative="1" as="geometry">
            <mxPoint x="370" y="310" as="sourcePoint" />
            <mxPoint x="370" y="540" as="targetPoint" />
          </mxGeometry>
        </mxCell>
        <mxCell id="MbIWgW55jRPoxcWCfszn-18" value="" style="endArrow=none;html=1;rounded=0;entryX=0.156;entryY=0;entryDx=0;entryDy=0;entryPerimeter=0;exitX=0.155;exitY=1;exitDx=0;exitDy=0;exitPerimeter=0;" edge="1" parent="1" source="MbIWgW55jRPoxcWCfszn-14" target="MbIWgW55jRPoxcWCfszn-14">
          <mxGeometry width="50" height="50" relative="1" as="geometry">
            <mxPoint x="500" y="590" as="sourcePoint" />
            <mxPoint x="550" y="540" as="targetPoint" />
          </mxGeometry>
        </mxCell>
        <mxCell id="MbIWgW55jRPoxcWCfszn-19" value="" style="endArrow=none;html=1;rounded=0;entryX=0.158;entryY=0.004;entryDx=0;entryDy=0;entryPerimeter=0;exitX=0.159;exitY=1.039;exitDx=0;exitDy=0;exitPerimeter=0;" edge="1" parent="1" source="MbIWgW55jRPoxcWCfszn-11" target="MbIWgW55jRPoxcWCfszn-11">
          <mxGeometry width="50" height="50" relative="1" as="geometry">
            <mxPoint x="580" y="460" as="sourcePoint" />
            <mxPoint x="630" y="410" as="targetPoint" />
          </mxGeometry>
        </mxCell>
        <mxCell id="MbIWgW55jRPoxcWCfszn-20" value="Użytkownik" style="ellipse;whiteSpace=wrap;html=1;" vertex="1" parent="1">
          <mxGeometry x="970" y="230" width="120" height="80" as="geometry" />
        </mxCell>
        <mxCell id="MbIWgW55jRPoxcWCfszn-21" value="Proces usuwania składnika" style="swimlane;whiteSpace=wrap;html=1;" vertex="1" parent="1">
          <mxGeometry x="590" y="210" width="180" height="100" as="geometry" />
        </mxCell>
        <mxCell id="MbIWgW55jRPoxcWCfszn-22" value="" style="endArrow=classic;html=1;rounded=0;exitX=0;exitY=0.5;exitDx=0;exitDy=0;" edge="1" parent="1" source="MbIWgW55jRPoxcWCfszn-20">
          <mxGeometry width="50" height="50" relative="1" as="geometry">
            <mxPoint x="770" y="270" as="sourcePoint" />
            <mxPoint x="770" y="270" as="targetPoint" />
          </mxGeometry>
        </mxCell>
        <mxCell id="MbIWgW55jRPoxcWCfszn-36" value="Prośba o usunięcie składnika" style="edgeLabel;html=1;align=center;verticalAlign=middle;resizable=0;points=[];" vertex="1" connectable="0" parent="MbIWgW55jRPoxcWCfszn-22">
          <mxGeometry relative="1" as="geometry">
            <mxPoint as="offset" />
          </mxGeometry>
        </mxCell>
        <mxCell id="MbIWgW55jRPoxcWCfszn-24" value="" style="endArrow=classic;html=1;rounded=0;exitX=0.588;exitY=0;exitDx=0;exitDy=0;exitPerimeter=0;" edge="1" parent="1" source="MbIWgW55jRPoxcWCfszn-11">
          <mxGeometry width="50" height="50" relative="1" as="geometry">
            <mxPoint x="580" y="270" as="sourcePoint" />
            <mxPoint x="690" y="310" as="targetPoint" />
          </mxGeometry>
        </mxCell>
        <mxCell id="MbIWgW55jRPoxcWCfszn-25" value="" style="endArrow=classic;startArrow=classic;html=1;rounded=0;exitX=0.584;exitY=-0.067;exitDx=0;exitDy=0;exitPerimeter=0;" edge="1" parent="1" source="MbIWgW55jRPoxcWCfszn-14">
          <mxGeometry width="50" height="50" relative="1" as="geometry">
            <mxPoint x="580" y="270" as="sourcePoint" />
            <mxPoint x="630" y="310" as="targetPoint" />
          </mxGeometry>
        </mxCell>
        <mxCell id="MbIWgW55jRPoxcWCfszn-26" value="Użytkownik" style="ellipse;whiteSpace=wrap;html=1;" vertex="1" parent="1">
          <mxGeometry x="20" y="520" width="120" height="80" as="geometry" />
        </mxCell>
        <mxCell id="MbIWgW55jRPoxcWCfszn-27" value="Baza przepisów" style="rounded=0;whiteSpace=wrap;html=1;" vertex="1" parent="1">
          <mxGeometry x="190" y="410" width="160" height="30" as="geometry" />
        </mxCell>
        <mxCell id="MbIWgW55jRPoxcWCfszn-28" value="" style="endArrow=none;html=1;rounded=0;entryX=0.156;entryY=0;entryDx=0;entryDy=0;entryPerimeter=0;exitX=0.155;exitY=1;exitDx=0;exitDy=0;exitPerimeter=0;" edge="1" parent="1" source="MbIWgW55jRPoxcWCfszn-27" target="MbIWgW55jRPoxcWCfszn-27">
          <mxGeometry width="50" height="50" relative="1" as="geometry">
            <mxPoint x="290" y="590" as="sourcePoint" />
            <mxPoint x="340" y="540" as="targetPoint" />
          </mxGeometry>
        </mxCell>
        <mxCell id="MbIWgW55jRPoxcWCfszn-29" value="" style="endArrow=classic;html=1;rounded=0;exitX=1;exitY=0.5;exitDx=0;exitDy=0;" edge="1" parent="1" source="MbIWgW55jRPoxcWCfszn-26">
          <mxGeometry width="50" height="50" relative="1" as="geometry">
            <mxPoint x="170" y="280" as="sourcePoint" />
            <mxPoint x="350" y="560" as="targetPoint" />
          </mxGeometry>
        </mxCell>
        <mxCell id="MbIWgW55jRPoxcWCfszn-30" value="Prośba o zaproponowanie przepisu" style="edgeLabel;html=1;align=center;verticalAlign=middle;resizable=0;points=[];" vertex="1" connectable="0" parent="MbIWgW55jRPoxcWCfszn-29">
          <mxGeometry x="-0.0889" y="-2" relative="1" as="geometry">
            <mxPoint as="offset" />
          </mxGeometry>
        </mxCell>
        <mxCell id="MbIWgW55jRPoxcWCfszn-31" value="Proces proponowania przepisu" style="swimlane;whiteSpace=wrap;html=1;startSize=30;" vertex="1" parent="1">
          <mxGeometry x="350" y="510" width="180" height="100" as="geometry" />
        </mxCell>
        <mxCell id="MbIWgW55jRPoxcWCfszn-32" value="" style="endArrow=classic;html=1;rounded=0;exitX=0.25;exitY=1;exitDx=0;exitDy=0;entryX=0.75;entryY=0;entryDx=0;entryDy=0;" edge="1" parent="1" source="MbIWgW55jRPoxcWCfszn-11" target="MbIWgW55jRPoxcWCfszn-31">
          <mxGeometry width="50" height="50" relative="1" as="geometry">
            <mxPoint x="480" y="510" as="sourcePoint" />
            <mxPoint x="530" y="460" as="targetPoint" />
          </mxGeometry>
        </mxCell>
        <mxCell id="MbIWgW55jRPoxcWCfszn-33" value="" style="endArrow=classic;html=1;rounded=0;entryX=0.174;entryY=-0.036;entryDx=0;entryDy=0;entryPerimeter=0;exitX=0.646;exitY=1.08;exitDx=0;exitDy=0;exitPerimeter=0;" edge="1" parent="1" source="MbIWgW55jRPoxcWCfszn-27" target="MbIWgW55jRPoxcWCfszn-31">
          <mxGeometry width="50" height="50" relative="1" as="geometry">
            <mxPoint x="420" y="510" as="sourcePoint" />
            <mxPoint x="470" y="460" as="targetPoint" />
          </mxGeometry>
        </mxCell>
        <mxCell id="MbIWgW55jRPoxcWCfszn-34" value="" style="endArrow=classic;startArrow=classic;html=1;rounded=0;entryX=0.309;entryY=1.027;entryDx=0;entryDy=0;entryPerimeter=0;" edge="1" parent="1" target="MbIWgW55jRPoxcWCfszn-14">
          <mxGeometry width="50" height="50" relative="1" as="geometry">
            <mxPoint x="420" y="510" as="sourcePoint" />
            <mxPoint x="470" y="460" as="targetPoint" />
          </mxGeometry>
        </mxCell>
        <mxCell id="MbIWgW55jRPoxcWCfszn-35" value="Prośba o wykonanie przepisu" style="ellipse;whiteSpace=wrap;html=1;" vertex="1" parent="1">
          <mxGeometry x="970" y="520" width="120" height="80" as="geometry" />
        </mxCell>
        <mxCell id="MbIWgW55jRPoxcWCfszn-37" value="Proces wykonania przepisu" style="swimlane;whiteSpace=wrap;html=1;startSize=30;" vertex="1" parent="1">
          <mxGeometry x="615" y="520" width="180" height="100" as="geometry" />
        </mxCell>
        <mxCell id="MbIWgW55jRPoxcWCfszn-38" value="" style="endArrow=classic;html=1;rounded=0;exitX=0;exitY=0.5;exitDx=0;exitDy=0;" edge="1" parent="1" source="MbIWgW55jRPoxcWCfszn-35">
          <mxGeometry width="50" height="50" relative="1" as="geometry">
            <mxPoint x="690" y="470" as="sourcePoint" />
            <mxPoint x="800" y="560" as="targetPoint" />
          </mxGeometry>
        </mxCell>
        <mxCell id="MbIWgW55jRPoxcWCfszn-39" value="Prośba o wykonanie przepisu" style="edgeLabel;html=1;align=center;verticalAlign=middle;resizable=0;points=[];" vertex="1" connectable="0" parent="MbIWgW55jRPoxcWCfszn-38">
          <mxGeometry x="-0.0029" y="-1" relative="1" as="geometry">
            <mxPoint as="offset" />
          </mxGeometry>
        </mxCell>
        <mxCell id="MbIWgW55jRPoxcWCfszn-40" value="" style="endArrow=classic;html=1;rounded=0;entryX=0.613;entryY=-0.016;entryDx=0;entryDy=0;entryPerimeter=0;exitX=0.724;exitY=0.973;exitDx=0;exitDy=0;exitPerimeter=0;" edge="1" parent="1" source="MbIWgW55jRPoxcWCfszn-11" target="MbIWgW55jRPoxcWCfszn-37">
          <mxGeometry width="50" height="50" relative="1" as="geometry">
            <mxPoint x="570" y="470" as="sourcePoint" />
            <mxPoint x="620" y="420" as="targetPoint" />
          </mxGeometry>
        </mxCell>
        <mxCell id="MbIWgW55jRPoxcWCfszn-41" value="" style="endArrow=classic;html=1;rounded=0;entryX=0.089;entryY=0;entryDx=0;entryDy=0;entryPerimeter=0;exitX=0.886;exitY=1.107;exitDx=0;exitDy=0;exitPerimeter=0;" edge="1" parent="1" source="MbIWgW55jRPoxcWCfszn-27" target="MbIWgW55jRPoxcWCfszn-37">
          <mxGeometry width="50" height="50" relative="1" as="geometry">
            <mxPoint x="480" y="470" as="sourcePoint" />
            <mxPoint x="580" y="500" as="targetPoint" />
          </mxGeometry>
        </mxCell>
        <mxCell id="MbIWgW55jRPoxcWCfszn-42" value="" style="endArrow=classic;startArrow=classic;html=1;rounded=0;entryX=0.904;entryY=1.053;entryDx=0;entryDy=0;entryPerimeter=0;exitX=0.25;exitY=0;exitDx=0;exitDy=0;" edge="1" parent="1" source="MbIWgW55jRPoxcWCfszn-37" target="MbIWgW55jRPoxcWCfszn-14">
          <mxGeometry width="50" height="50" relative="1" as="geometry">
            <mxPoint x="480" y="470" as="sourcePoint" />
            <mxPoint x="530" y="420" as="targetPoint" />
          </mxGeometry>
        </mxCell>
      </root>
    </mxGraphModel>
  </diagram>
</mxfile>
